<svg width="19" height="17" viewBox="0 0 19 17" fill="none" xmlns="http://www.w3.org/2000/svg">
<path d="M3.5 14C4.32843 14 5 14.6716 5 15.5C5 16.3284 4.32843 17 3.5 17C2.67157 17 2 16.3284 2 15.5C2 14.6716 2.67157 14 3.5 14ZM15.5 14C16.3284 14 17 14.6716 17 15.5C17 16.3284 16.3284 17 15.5 17C14.6716 17 14 16.3284 14 15.5C14 14.6716 14.6716 14 15.5 14ZM2 0V5.9235L2.04031 6.15778C2.41123 8.14456 3.34536 9 5 9H14.3333C16.2051 9 17 8.13287 17 6V0H19V6C19 9.20046 17.3504 11 14.3333 11H5C2.20393 11 0.480263 9.27633 0.0110636 6.14834L0 6V0H2Z" fill="white"/>
</svg>
