<svg width="67" height="30" viewBox="0 0 67 30" fill="none" xmlns="http://www.w3.org/2000/svg">
<path d="M19.9805 2.5C18.6505 2.6425 17.1886 3.49385 16.2573 4.63135C15.4598 5.6251 14.7948 7.1875 15.061 8.75C16.3898 8.75 17.8518 7.75615 18.7818 6.61865C19.5805 5.4824 20.113 4.0625 19.9805 2.5ZM10.4419 8.75C8.41191 8.75 6.23791 9.9725 4.93166 11.875C3.04666 14.5925 3.33685 19.7565 6.38185 24.104C7.5431 25.734 8.99148 27.5 10.8765 27.5C12.6165 27.5 13.0523 26.4136 15.3735 26.4136C17.6948 26.4136 18.1282 27.5 19.8682 27.5C21.8982 27.5 23.3493 25.5973 24.5093 23.9673C25.3793 22.881 25.67 22.2015 26.25 20.979C21.7538 19.3478 21.0284 13.505 25.3809 11.1963C23.9296 9.70129 22.0452 8.75 20.3052 8.75C17.9839 8.75 16.9698 10 15.3735 10C13.7773 10 12.4719 8.75 10.4419 8.75Z" fill="white"/>
<path fill-rule="evenodd" clip-rule="evenodd" d="M65.1211 12.7542V19.0355C65.1211 19.9222 64.4141 20.641 63.5391 20.641C62.668 20.641 61.9609 19.9222 61.9609 19.0355V12.7542C61.9609 11.8675 62.6641 11.1488 63.5391 11.1488C64.4141 11.1488 65.1211 11.8675 65.1211 12.7542ZM44.457 11.1488C43.5859 11.1488 42.8789 11.8675 42.8789 12.7542V19.0316C42.8789 19.9183 43.5859 20.641 44.457 20.641C45.3359 20.641 46.0391 19.9183 46.0391 19.0316V12.7542C46.0391 11.8675 45.3359 11.1488 44.457 11.1488ZM46.9922 22.6644C46.9922 23.348 47.5469 23.8988 48.2266 23.8988H49.6367V27.3949C49.6367 28.2816 50.3477 29.0003 51.2188 29.0003C52.0938 29.0003 52.8008 28.2816 52.8008 27.3949V23.8988H55.2617V27.3949C55.2617 28.2816 55.9727 29.0003 56.8438 29.0003C57.7188 29.0003 58.4258 28.2816 58.4258 27.3949V23.8988H59.8359C60.5156 23.8988 61.0703 23.3519 61.0703 22.6683V11.1956H46.9922V22.6644ZM61.0352 10.1761H46.9609C47.1445 8.03939 48.5938 6.21517 50.6641 5.25423L49.3633 3.36361C49.2852 3.25423 49.3047 3.1058 49.4023 3.03548C49.5039 2.96908 49.6484 3.00033 49.7305 3.11361L51.0781 5.07455C51.9688 4.72298 52.957 4.52767 54 4.52767C55.043 4.52767 56.0273 4.72298 56.9219 5.07455L58.2695 3.11361C58.3516 3.00033 58.4961 2.96908 58.5977 3.03548C58.6953 3.1058 58.7148 3.25423 58.6367 3.36361L57.3359 5.25423C59.4023 6.21517 60.8555 8.03939 61.0352 10.1761ZM51.8125 7.44564C51.8125 7.01595 51.4609 6.6722 51.0312 6.6722C50.6016 6.6722 50.25 7.01986 50.25 7.44564C50.25 7.87923 50.6016 8.22689 51.0312 8.22689C51.4609 8.22689 51.8125 7.87923 51.8125 7.44564ZM57.8438 7.44564C57.8438 7.01595 57.4961 6.6722 57.0664 6.6722C56.6367 6.6722 56.2891 7.01986 56.2891 7.44564C56.2891 7.87923 56.6367 8.22689 57.0664 8.22689C57.4961 8.22689 57.8438 7.87923 57.8438 7.44564Z" fill="white"/>
</svg>
