<svg width="113" height="114" viewBox="0 0 113 114" fill="none" xmlns="http://www.w3.org/2000/svg">
<rect width="113" height="114" rx="29" fill="#CF3476"/>
<g clip-path="url(#clip0_508_1124)">
<path fill-rule="evenodd" clip-rule="evenodd" d="M34.3996 66.0015H32.1653V62.5457H20.861V66.0015H18.6184L18.0083 60.2023H20.8527C21.122 59.2182 21.3669 58.2281 21.5875 57.2321C21.8119 56.2171 22.0213 55.1956 22.2075 54.1725C22.3904 53.1754 22.5528 52.1756 22.6946 51.1731C22.8309 50.19 22.9479 49.2536 23.0454 48.3636H32.1238V60.2023H35.018L34.3996 66.0015V66.0015ZM25.5257 50.8093C25.4525 51.5585 25.36 52.3061 25.2481 53.052C25.1284 53.8456 24.9937 54.6365 24.8441 55.4246C24.6889 56.2334 24.5166 57.0383 24.3271 57.8394C24.1376 58.6406 23.9375 59.4282 23.727 60.2023H29.2495V50.8093H25.5257ZM41.3086 47.9999C40.3366 47.9847 39.3728 48.1742 38.4825 48.5553C37.6677 48.9121 36.9434 49.4399 36.3612 50.1013C35.7644 50.7893 35.3125 51.5857 35.0313 52.4446C34.7199 53.3983 34.5667 54.3945 34.5775 55.3954C34.568 56.4026 34.7212 57.405 35.0313 58.3656C35.3105 59.2343 35.7624 60.0405 36.3612 60.7382C36.9421 61.4059 37.6663 61.9404 38.4825 62.3037C39.3708 62.6918 40.3355 62.8848 41.3086 62.8689C42.2841 62.8833 43.2512 62.6905 44.143 62.3037C44.9662 61.9379 45.6992 61.4035 46.2924 60.7366C46.9013 60.0417 47.3619 59.2351 47.6473 58.364C47.9639 57.4046 48.1211 56.4018 48.1128 55.3938C48.1223 54.392 47.9651 53.3955 47.6473 52.443C47.3598 51.5816 46.8992 50.7849 46.2924 50.0996C45.6974 49.4409 44.9643 48.9147 44.143 48.5569C43.2493 48.1772 42.283 47.9879 41.3086 48.0015V47.9999ZM41.3086 50.465C41.8635 50.4494 42.4136 50.5698 42.9087 50.8151C43.4038 51.0605 43.8281 51.4231 44.143 51.8698C44.475 52.3418 44.7161 52.869 44.8545 53.4255C45.018 54.0627 45.0984 54.7174 45.0938 55.3743C45.0965 56.031 45.0161 56.6856 44.8545 57.323C44.7145 57.8947 44.4737 58.4381 44.143 58.9291C43.8364 59.3763 43.4293 59.749 42.9527 60.0188C42.4518 60.2955 41.8838 60.4352 41.3086 60.4232C40.7363 60.4363 40.1713 60.2965 39.6744 60.0188C39.2018 59.7473 38.7983 59.3748 38.4941 58.9291C38.1666 58.4386 37.9287 57.8963 37.7909 57.3263C37.6284 56.6889 37.548 56.0343 37.5515 55.3775C37.546 54.7206 37.6265 54.0657 37.7909 53.4288C37.9293 52.8722 38.1704 52.345 38.5024 51.873C38.8095 51.4452 39.2134 51.0923 39.6827 50.8418C40.1837 50.5849 40.7428 50.4554 41.3086 50.465V50.465Z" fill="white"/>
<path fill-rule="evenodd" clip-rule="evenodd" d="M57.6252 48.3633L49.787 62.5453H46.5403L54.3985 48.3633H57.6252ZM63.8991 48.3633H60.674L52.8142 62.5453H56.0609L63.8991 48.3633V48.3633ZM70.1747 48.3633L62.3364 62.5453H59.0898L66.9463 48.3633H70.1747Z" fill="white"/>
<path fill-rule="evenodd" clip-rule="evenodd" d="M83.0081 66.0011H80.7689V62.5454H69.4546V66.0011H67.2153L66.5952 60.202H69.4479C69.7172 59.2178 69.9627 58.2278 70.1843 57.2317C70.406 56.2173 70.6127 55.1975 70.8044 54.1722C70.9862 53.1751 71.148 52.1753 71.2898 51.1727C71.4262 50.1902 71.5459 49.2532 71.6406 48.3633H80.7207V60.202H83.6232L83.0081 66.0011ZM74.1359 50.809C74.0627 51.5582 73.9696 52.3057 73.8566 53.0517C73.7369 53.8458 73.6039 54.6367 73.4526 55.4243C73.3014 56.2119 73.1202 57.0369 72.9356 57.8391C72.7511 58.6413 72.5466 59.4176 72.3355 60.202H77.8547V50.809H74.1359ZM86.9364 53.8945H91.3035C92.8551 53.8945 94.0243 54.2734 94.8112 55.0313C95.5981 55.7891 95.9943 56.8718 95.9998 58.2792C95.9998 59.7083 95.5964 60.7758 94.7896 61.4817C93.9828 62.1875 92.8191 62.541 91.2985 62.5421H84.087V48.3633H86.9131V53.901L86.9364 53.8945ZM90.8031 60.2978C91.39 60.3221 91.9661 60.1388 92.4256 59.7814C92.8468 59.4382 93.0574 58.9299 93.0574 58.2565C93.0574 57.5831 92.854 57.0612 92.4473 56.691C92.0394 56.3337 91.4914 56.1551 90.8031 56.1551H86.9198V60.2978H90.8031Z" fill="white"/>
</g>
<defs>
<clipPath id="clip0_508_1124">
<rect width="78" height="18" fill="white" transform="translate(18 48)"/>
</clipPath>
</defs>
</svg>
