<svg width="59" height="59" viewBox="0 0 59 59" fill="none" xmlns="http://www.w3.org/2000/svg">
<path d="M29.5 10C25.841 10 22.2643 11.1143 19.222 13.2021C16.1796 15.2898 13.8085 18.2572 12.4082 21.729C11.008 25.2008 10.6417 29.0211 11.3555 32.7067C12.0693 36.3923 13.8313 39.7778 16.4185 42.435C19.0058 45.0922 22.3022 46.9018 25.8908 47.6349C29.4795 48.368 33.1992 47.9918 36.5796 46.5537C39.9601 45.1156 42.8494 42.6804 44.8822 39.5558C46.915 36.4313 48 32.7578 48 29C47.996 23.9621 46.0456 19.1318 42.577 15.5695C39.1085 12.0072 34.4053 10.0041 29.5 10ZM29.5 44.7918C26.4552 44.7918 23.4789 43.8643 20.9474 42.1267C18.416 40.3891 16.4433 37.9194 15.2788 35.03C14.1143 32.1407 13.8104 28.9616 14.4055 25.8948C15.0006 22.8281 16.468 20.0115 18.622 17.8014C20.7761 15.5913 23.52 14.0871 26.5066 13.4789C29.4932 12.8707 32.5884 13.186 35.4005 14.3848C38.2127 15.5836 40.6154 17.6121 42.3048 20.2136C43.9943 22.8152 44.8944 25.8729 44.8914 29C44.8874 33.1911 43.2645 37.2094 40.3789 40.1729C37.4933 43.1365 33.5808 44.8032 29.5 44.8074V44.7918Z" fill="black"/>
<path d="M35.459 22.5567L26.5384 32.151L23.4982 28.8602C23.2238 28.5631 22.8515 28.3963 22.4634 28.3963C22.0753 28.3963 21.7031 28.5631 21.4286 28.8602C21.1542 29.1573 21 29.5602 21 29.9803C21 30.4005 21.1542 30.8034 21.4286 31.1005L25.5107 35.5191C25.644 35.671 25.8045 35.792 25.9824 35.8747C26.1603 35.9574 26.3519 36 26.5455 36C26.7391 36 26.9307 35.9574 27.1085 35.8747C27.2864 35.792 27.4469 35.671 27.5803 35.5191L37.5714 24.7042C37.8458 24.4071 38 24.0042 38 23.5841C38 23.164 37.8458 22.761 37.5714 22.464C37.2969 22.1669 36.9247 22 36.5366 22C36.1485 22 35.7762 22.1669 35.5018 22.464L35.459 22.5567Z" fill="black"/>
<path d="M55.8515 22.7895L54.7679 21.8867C54.0632 21.3006 53.5114 20.552 53.1601 19.7054C52.8088 18.8588 52.6685 17.9396 52.7513 17.0268L52.8868 15.6125C53.0022 14.3368 52.8359 13.0513 52.3995 11.847C51.9631 10.6427 51.2673 9.54902 50.3614 8.64328C49.4554 7.73755 48.3615 7.04192 47.1569 6.60562C45.9523 6.16932 44.6666 6.00301 43.3906 6.11846L41.9759 6.23883C41.0627 6.32418 40.1425 6.18511 39.2953 5.83372C38.4481 5.48233 37.6996 4.92927 37.115 4.22266L36.212 3.13934C35.3914 2.15663 34.3649 1.3661 33.2051 0.823637C32.0453 0.281169 30.7805 0 29.5 0C28.2195 0 26.9547 0.281169 25.7949 0.823637C24.6351 1.3661 23.6086 2.15663 22.788 3.13934L21.885 4.22266C21.3004 4.92927 20.5519 5.48233 19.7047 5.83372C18.8575 6.18511 17.9373 6.32418 17.024 6.23883L15.6094 6.11846C14.3334 6.00301 13.0477 6.16932 11.8431 6.60562C10.6385 7.04192 9.54456 7.73755 8.63863 8.64328C7.73269 9.54902 7.0369 10.6427 6.60051 11.847C6.16411 13.0513 5.99777 14.3368 6.11324 15.6125L6.24868 17.0268C6.33144 17.9396 6.19115 18.8588 5.83986 19.7054C5.48857 20.552 4.93681 21.3006 4.23206 21.8867L3.14851 22.7895C2.16324 23.6084 1.37038 24.6342 0.826232 25.7939C0.282087 26.9537 0 28.219 0 29.5C0 30.781 0.282087 32.0463 0.826232 33.2061C1.37038 34.3658 2.16324 35.3916 3.14851 36.2105L4.23206 37.1133C4.93681 37.6995 5.48857 38.448 5.83986 39.2946C6.19115 40.1412 6.33144 41.0604 6.24868 41.9732L6.11324 43.3875C5.99777 44.6632 6.16411 45.9487 6.60051 47.153C7.0369 48.3573 7.73269 49.451 8.63863 50.3567C9.54456 51.2625 10.6385 51.9581 11.8431 52.3944C13.0477 52.8307 14.3334 52.997 15.6094 52.8815L17.024 52.7612C17.9373 52.6758 18.8575 52.8149 19.7047 53.1663C20.5519 53.5177 21.3004 54.0707 21.885 54.7773L22.788 55.8607C23.6086 56.8434 24.6351 57.6339 25.7949 58.1764C26.9547 58.7188 28.2195 59 29.5 59C30.7805 59 32.0453 58.7188 33.2051 58.1764C34.3649 57.6339 35.3914 56.8434 36.212 55.8607L37.115 54.7773C37.7004 54.0718 38.449 53.5194 39.296 53.1681C40.143 52.8168 41.0628 52.6771 41.9759 52.7612L43.3906 52.8815C44.6666 52.997 45.9523 52.8307 47.1569 52.3944C48.3615 51.9581 49.4554 51.2625 50.3614 50.3567C51.2673 49.451 51.9631 48.3573 52.3995 47.153C52.8359 45.9487 53.0022 44.6632 52.8868 43.3875L52.7513 41.9732C52.6685 41.0604 52.8088 40.1412 53.1601 39.2946C53.5114 38.448 54.0632 37.6995 54.7679 37.1133L55.8515 36.2105C56.8368 35.3916 57.6296 34.3658 58.1738 33.2061C58.7179 32.0463 59 30.781 59 29.5C59 28.219 58.7179 26.9537 58.1738 25.7939C57.6296 24.6342 56.8368 23.6084 55.8515 22.7895ZM53.88 33.8483L52.7965 34.7511C51.7056 35.6582 50.852 36.8172 50.3093 38.1278C49.7665 39.4385 49.551 40.8615 49.6812 42.2741L49.8167 43.6884C49.8904 44.5131 49.7823 45.3439 49.4998 46.1222C49.2173 46.9004 48.7674 47.6073 48.1818 48.1927C47.5962 48.7782 46.8893 49.228 46.1108 49.5104C45.3323 49.7928 44.5014 49.901 43.6765 49.8272L42.2619 49.7068C40.8488 49.574 39.4246 49.7883 38.1132 50.3311C36.8018 50.8739 35.6429 51.7288 34.7372 52.8214L33.8342 53.9047C33.3032 54.5426 32.6383 55.0558 31.8866 55.4081C31.135 55.7603 30.3151 55.9429 29.4849 55.9429C28.6548 55.9429 27.8349 55.7603 27.0833 55.4081C26.3316 55.0558 25.6667 54.5426 25.1357 53.9047L24.2327 52.8214C23.4133 51.8369 22.3872 51.0448 21.2272 50.5013C20.0672 49.9579 18.8017 49.6764 17.5207 49.6767H16.7231L15.3084 49.7971C14.4836 49.8709 13.6526 49.7627 12.8741 49.4803C12.0957 49.1979 11.3887 48.7481 10.8031 48.1626C10.2175 47.5772 9.76764 46.8703 9.48515 46.0921C9.20267 45.3138 9.0945 44.483 9.16827 43.6583L9.30371 42.244C9.43395 40.8314 9.2184 39.4084 8.67566 38.0977C8.13292 36.7871 7.2793 35.6281 6.18848 34.721L5.10493 33.8182C4.46689 33.2873 3.9535 32.6225 3.60117 31.8711C3.24884 31.1196 3.0662 30.2998 3.0662 29.4699C3.0662 28.64 3.24884 27.8202 3.60117 27.0688C3.9535 26.3173 4.46689 25.6525 5.10493 25.1216L6.18848 24.2188C7.2793 23.3117 8.13292 22.1528 8.67566 20.8421C9.2184 19.5314 9.43395 18.1084 9.30371 16.6958L9.16827 15.2815C9.0945 14.4568 9.20267 13.626 9.48515 12.8478C9.76764 12.0695 10.2175 11.3627 10.8031 10.7772C11.3887 10.1918 12.0957 9.74195 12.8741 9.45953C13.6526 9.17711 14.4836 9.06896 15.3084 9.14272L16.7231 9.26308C18.1358 9.39199 19.5588 9.17589 20.8695 8.63337C22.1802 8.09084 23.3396 7.23812 24.2478 6.14855L25.1507 5.06524C25.6818 4.42734 26.3467 3.91407 27.0983 3.56181C27.8499 3.20956 28.6699 3.02696 29.5 3.02696C30.3301 3.02696 31.1501 3.20956 31.9017 3.56181C32.6533 3.91407 33.3182 4.42734 33.8493 5.06524L34.7522 6.14855C35.6612 7.23639 36.821 8.08695 38.1319 8.62691C39.4428 9.16687 40.8653 9.38003 42.2769 9.24804L43.6916 9.12767C44.5164 9.05391 45.3474 9.16207 46.1259 9.44449C46.9043 9.72691 47.6113 10.1767 48.1969 10.7622C48.7824 11.3476 49.2324 12.0544 49.5148 12.8327C49.7973 13.611 49.9055 14.4418 49.8317 15.2665L49.6963 16.6808C49.566 18.0933 49.7816 19.5164 50.3243 20.827C50.8671 22.1377 51.7207 23.2966 52.8115 24.2038L53.8951 25.1066C54.5331 25.6375 55.0465 26.3022 55.3988 27.0537C55.7512 27.8052 55.9338 28.6249 55.9338 29.4549C55.9338 30.2848 55.7512 31.1046 55.3988 31.856C55.0465 32.6075 54.5331 33.2723 53.8951 33.8032L53.88 33.8483Z" fill="black"/>
</svg>
