<svg width="32" height="32" viewBox="0 0 32 32" fill="none" xmlns="http://www.w3.org/2000/svg">
<path d="M16.0001 2.66699C8.65208 2.66699 2.66675 8.65232 2.66675 16.0003C2.66675 23.3483 8.65208 29.3337 16.0001 29.3337C20.3619 29.3337 24.2322 27.2151 26.6668 23.9639V29.3337H29.3334V16.0003C29.3334 8.65232 23.3481 2.66699 16.0001 2.66699ZM16.0001 6.66699C17.4734 6.66699 18.6667 7.86033 18.6667 9.33366C18.6667 10.807 17.4734 12.0003 16.0001 12.0003C14.5267 12.0003 13.3334 10.807 13.3334 9.33366C13.3334 7.86033 14.5267 6.66699 16.0001 6.66699ZM9.33342 13.3337C10.8067 13.3337 12.0001 14.527 12.0001 16.0003C12.0001 17.4737 10.8067 18.667 9.33342 18.667C7.86008 18.667 6.66675 17.4737 6.66675 16.0003C6.66675 14.527 7.86008 13.3337 9.33342 13.3337ZM22.6668 13.3337C24.1401 13.3337 25.3334 14.527 25.3334 16.0003C25.3334 17.4737 24.1401 18.667 22.6668 18.667C21.1934 18.667 20.0001 17.4737 20.0001 16.0003C20.0001 14.527 21.1934 13.3337 22.6668 13.3337ZM16.0001 14.667C16.7361 14.667 17.3334 15.2643 17.3334 16.0003C17.3334 16.7363 16.7361 17.3337 16.0001 17.3337C15.2641 17.3337 14.6667 16.7363 14.6667 16.0003C14.6667 15.2643 15.2641 14.667 16.0001 14.667ZM16.0001 20.0003C17.4734 20.0003 18.6667 21.1937 18.6667 22.667C18.6667 24.1403 17.4734 25.3337 16.0001 25.3337C14.5267 25.3337 13.3334 24.1403 13.3334 22.667C13.3334 21.1937 14.5267 20.0003 16.0001 20.0003Z" fill="white"/>
</svg>
